<?xml version="1.0" standalone="no"?>
<!DOCTYPE svg PUBLIC "-//W3C//DTD SVG 1.1//EN" "http://www.w3.org/Graphics/SVG/1.1/DTD/svg11.dtd" >
<svg xmlns="http://www.w3.org/2000/svg" xmlns:xlink="http://www.w3.org/1999/xlink" version="1.1">
<metadata></metadata>
<defs>
<font id="cerebri_sans_prothin" horiz-adv-x="1116" >
<font-face units-per-em="2048" ascent="1536" descent="-512" />
<missing-glyph horiz-adv-x="532" />
<glyph unicode="&#xfb01;" horiz-adv-x="1064" d="M61 903v55h203v256q0 163 80.5 252.5t241.5 89.5q142 0 219.5 -72.5t93.5 -203.5l-59 -16q-22 235 -256 235q-258 0 -258 -285v-256h264v-55h-264v-903h-62v903h-203zM840 0v958h61v-958h-61z" />
<glyph unicode="&#xfb02;" horiz-adv-x="1069" d="M61 903v55h203v256q0 163 80 252.5t240 89.5q161 0 241 -89t80 -253v-1214h-61v1214q0 285 -260 285q-258 0 -258 -285v-256h264v-55h-264v-903h-62v903h-203z" />
<glyph horiz-adv-x="0" />
<glyph horiz-adv-x="682" />
<glyph horiz-adv-x="0" />
<glyph horiz-adv-x="0" />
<glyph unicode="&#xd;" horiz-adv-x="512" />
<glyph unicode=" "  horiz-adv-x="532" />
<glyph unicode="&#x09;" horiz-adv-x="532" />
<glyph unicode="&#xa0;" horiz-adv-x="532" />
<glyph unicode="!" horiz-adv-x="434" d="M147 49q0 29 20.5 49.5t49.5 20.5q28 0 49 -20.5t21 -49.5t-21 -49t-49 -20q-29 0 -49.5 20t-20.5 49zM186 1389h62l-4 -1022h-56z" />
<glyph unicode="&#x22;" horiz-adv-x="655" d="M121 1389h61l-2 -641h-55zM473 1389h62l-5 -641h-53z" />
<glyph unicode="#" horiz-adv-x="1372" d="M74 373l8 53h289l78 539h-289l8 53h289l51 371h57l-55 -371h434l53 371h56l-56 -371h303l-8 -53h-303l-78 -539h303l-8 -53h-303l-53 -373h-55l55 373h-434l-56 -373h-53l55 373h-288zM424 426h434l78 539h-434z" />
<glyph unicode="$" horiz-adv-x="1224" d="M106 326l62 14q34 -139 148.5 -218t289.5 -85v639q-88 19 -136.5 31t-120.5 40.5t-110 62.5t-67 92t-29 132q0 169 122.5 272t322.5 103h18v131h47v-133q335 -24 426 -315l-57 -17q-43 129 -133 197t-236 78v-621q45 -10 74.5 -16.5t72 -18.5t70.5 -22.5t64 -27.5 t59 -35.5t47 -44t38 -54t23 -66t9 -79.5q0 -174 -123 -277t-334 -108v-121h-47v121q-199 6 -331 97t-169 249zM207 1034q0 -44 12 -80t29 -62t49.5 -48.5t61 -36t76 -27.5t81.5 -22t90 -19v613h-16q-175 0 -279 -86.5t-104 -231.5zM653 37q185 5 289.5 90.5t104.5 234.5 q0 44 -11.5 81t-29.5 64.5t-49 50.5t-61 38t-74 29.5t-80.5 23t-88.5 19.5v-631z" />
<glyph unicode="%" horiz-adv-x="1347" d="M117 1143q0 110 77.5 188t186.5 78q108 0 185 -78.5t77 -187.5q0 -110 -76.5 -188t-185.5 -78t-186.5 78t-77.5 188zM170 1143q0 -89 61.5 -151t149.5 -62t148.5 62t60.5 151q0 88 -61.5 150.5t-147.5 62.5q-88 0 -149.5 -62t-61.5 -151zM264 0l742 1389h63l-743 -1389 h-62zM700 246q0 110 78.5 189t188.5 79q107 0 184.5 -79t77.5 -189q0 -109 -77 -187.5t-185 -78.5q-110 0 -188.5 78.5t-78.5 187.5zM752 246q0 -88 63 -150.5t152 -62.5q87 0 148 62.5t61 150.5q0 89 -61.5 152t-147.5 63q-89 0 -152 -63t-63 -152z" />
<glyph unicode="&#x26;" horiz-adv-x="1366" d="M119 334q0 83 26.5 150t94 129t108.5 90.5t143 91.5q9 6 14 9t13 8t14 9l-26 35q-33 45 -47.5 66t-39.5 63.5t-35.5 81.5t-10.5 80q0 113 75 187.5t193 74.5q116 0 190 -71t74 -179q0 -47 -13.5 -87t-33 -69.5t-61.5 -65t-78 -60t-105 -68.5l402 -530q168 203 168 489h59 q0 -318 -194 -535l176 -233h-74l-143 188q-101 -99 -228 -153.5t-248 -54.5q-196 0 -304.5 92.5t-108.5 261.5zM180 336q0 -147 91.5 -223t263.5 -76q113 0 230 50.5t210 145.5l-410 545q-20 -13 -71 -45t-72 -46t-62.5 -44.5t-60.5 -49.5t-47 -51.5t-40 -61t-22 -66 t-10 -78.5zM432 1149q0 -44 23.5 -98.5t41.5 -80.5t58 -81l29 -39q56 37 83.5 56.5t64 47.5t52.5 47t33.5 45.5t23 53.5t5.5 61q0 85 -57 140t-146 55q-94 0 -152.5 -59t-58.5 -148z" />
<glyph unicode="'" horiz-adv-x="303" d="M123 1389h59l-4 -641h-53z" />
<glyph unicode="(" horiz-adv-x="561" d="M125 520q0 341 84 610t237 422h80q-163 -138 -253.5 -408.5t-90.5 -623.5q0 -354 90.5 -624.5t253.5 -407.5h-80q-153 151 -237 420.5t-84 611.5z" />
<glyph unicode=")" horiz-adv-x="563" d="M35 -512q163 137 253.5 407.5t90.5 624.5q0 353 -90.5 623.5t-253.5 408.5h82q153 -153 237 -422t84 -610q0 -342 -84 -611.5t-237 -420.5h-82z" />
<glyph unicode="*" horiz-adv-x="704" d="M41 1251v52l252 -13q16 0 22 10t-4 23l-139 209l45 22l119 -215q6 -13 16 -13t19 13l114 215l43 -22l-137 -209q-9 -12 -3.5 -23.5t20.5 -11.5l254 15v-52l-254 9q-15 0 -20.5 -10t3.5 -23l137 -205l-43 -27l-114 217q-8 12 -18 12t-17 -14l-119 -215l-45 27l137 205 q10 15 5 24t-21 9z" />
<glyph unicode="+" horiz-adv-x="1146" d="M109 453v55h438v436h55v-436h436v-55h-436v-439h-55v439h-438z" />
<glyph unicode="," horiz-adv-x="546" d="M182 -358l121 604h62l-129 -604h-54z" />
<glyph unicode="-" horiz-adv-x="776" d="M31 453v55h717v-55h-717z" />
<glyph unicode="." horiz-adv-x="583" d="M221 49q0 28 21 49t49 21q29 0 50 -21t21 -49q0 -29 -21 -49t-50 -20q-28 0 -49 20t-21 49z" />
<glyph unicode="/" horiz-adv-x="1040" d="M-8 -354l991 1890h66l-990 -1890h-67z" />
<glyph unicode="0" d="M129 694q0 355 108 535t322 180q212 0 320 -180.5t108 -534.5q0 -349 -109.5 -531.5t-318.5 -182.5q-211 0 -320.5 182t-109.5 532zM190 694q0 -326 93.5 -491.5t275.5 -165.5q180 0 273.5 166t93.5 491q0 656 -367 656q-369 0 -369 -656z" />
<glyph unicode="1" d="M287 1024v76l350 289h65v-1389h-61v1315z" />
<glyph unicode="2" d="M131 0v94l576 586q105 106 149.5 191.5t44.5 175.5q0 141 -91.5 222t-248.5 81q-178 0 -273 -92t-95 -261v-71l-62 6v67q0 194 113 302t315 108q184 0 294 -98t110 -262q0 -94 -44.5 -189t-166.5 -219l-562 -571v-11h811v-59h-870z" />
<glyph unicode="3" d="M109 422h61q0 -180 105 -282.5t292 -102.5q161 0 266 97.5t105 248.5q0 163 -110.5 256.5t-303.5 93.5h-47v55h47q152 0 242 81t90 210q0 121 -84.5 197t-218.5 76q-146 0 -237 -92t-91 -238v-8l-61 8q0 170 108.5 278.5t280.5 108.5q158 0 260 -92.5t102 -235.5 q0 -115 -64 -198t-175 -117q154 -36 238.5 -134.5t84.5 -250.5q0 -174 -122 -287.5t-308 -113.5q-215 0 -337.5 117.5t-122.5 324.5z" />
<glyph unicode="4" d="M76 338v57l717 994h75v-994h179v-57h-179v-338h-61v338h-731zM147 395h660v922z" />
<glyph unicode="5" d="M111 414q0 19 4 55h59q-4 -40 -4 -53q0 -181 104.5 -280t296.5 -99q165 0 269 108t104 279q0 201 -118.5 291t-372.5 90h-289l98 584h686v-60h-635l-77 -467h225q278 0 411.5 -106t133.5 -332q0 -196 -121.5 -320t-313.5 -124q-217 0 -338.5 115t-121.5 319z" />
<glyph unicode="6" d="M98 459q0 197 125 338l522 592h78l-428 -486q79 31 168 31q196 0 325.5 -136.5t129.5 -338.5q0 -204 -131.5 -341.5t-329.5 -137.5q-197 0 -328 138.5t-131 340.5zM158 461q0 -180 113 -302t286 -122t286 121.5t113 300.5q0 180 -113 301t-286 121q-172 0 -285.5 -121 t-113.5 -299z" />
<glyph unicode="7" d="M92 1329v60h934v-60l-768 -1329h-70l766 1329h-862z" />
<glyph unicode="8" d="M127 373q0 132 77 229.5t206 134.5q-104 39 -166 126t-62 200q0 147 108.5 246.5t268.5 99.5t268.5 -100t108.5 -246q0 -111 -62 -198.5t-165 -127.5q128 -37 204 -134t76 -230q0 -171 -122 -282t-308 -111q-188 0 -310 111t-122 282zM188 377q0 -149 104.5 -244.5 t266.5 -95.5q161 0 265 95.5t104 244.5q0 146 -103 239t-266 93t-267 -93t-104 -239zM242 1063q0 -129 90.5 -215t226.5 -86q135 0 226.5 86.5t91.5 214.5q0 123 -91.5 207t-226.5 84q-136 0 -226.5 -83.5t-90.5 -207.5z" />
<glyph unicode="9" d="M98 930q0 202 132 340.5t329 138.5t328 -138.5t131 -342.5q0 -195 -125 -336l-522 -592h-78l426 483q-77 -30 -166 -30q-195 0 -325 137.5t-130 339.5zM160 928q0 -179 113 -299.5t286 -120.5q172 0 285.5 121t113.5 299q0 180 -113 301t-286 121t-286 -121t-113 -301z " />
<glyph unicode=":" horiz-adv-x="561" d="M211 49q0 28 21 49t49 21q29 0 49 -21t20 -49q0 -29 -20 -49t-49 -20q-28 0 -49 20t-21 49zM211 868q0 29 21 49.5t49 20.5q29 0 49 -20.5t20 -49.5t-20 -49t-49 -20q-28 0 -49 20t-21 49z" />
<glyph unicode=";" horiz-adv-x="552" d="M158 -358l121 604h61l-129 -604h-53zM233 868q0 29 21 49.5t49 20.5q29 0 50.5 -20.5t21.5 -49.5t-21 -49t-51 -20q-28 0 -49 20t-21 49z" />
<glyph unicode="&#x3c;" horiz-adv-x="978" d="M109 440v82l759 381v-61l-712 -357v-8l712 -360v-60z" />
<glyph unicode="=" horiz-adv-x="1138" d="M109 256v55h921v-55h-921zM109 649v56h921v-56h-921z" />
<glyph unicode="&#x3e;" horiz-adv-x="976" d="M109 57v60l712 360v8l-712 357v61l759 -381v-82z" />
<glyph unicode="?" horiz-adv-x="970" d="M78 1012q0 179 111 288t294 109q180 0 290 -104t110 -275q0 -46 -8.5 -88t-19.5 -72t-33.5 -62.5t-37 -50t-44.5 -43.5t-41.5 -34.5t-41.5 -30.5q-80 -59 -111.5 -110t-31.5 -121v-51h-57v55q0 84 37.5 145t126.5 125q36 25 56.5 41t52.5 48.5t49 63.5t30.5 79.5 t13.5 103.5q0 149 -92 236.5t-248 87.5q-158 0 -252 -93t-94 -249q0 -50 8 -86l-59 -6q-8 36 -8 94zM416 49q0 29 20.5 49.5t48.5 20.5t49 -20.5t21 -49.5t-20.5 -49t-49.5 -20q-28 0 -48.5 20t-20.5 49z" />
<glyph unicode="@" horiz-adv-x="1779" d="M152 535q0 152 58.5 289.5t157.5 237t236.5 158t288.5 58.5q201 0 372 -99.5t270 -269.5t99 -370q0 -197 -79.5 -306.5t-221.5 -109.5q-94 0 -153 45.5t-72 128.5h-4q-79 -174 -277 -174q-113 0 -183.5 57.5t-70.5 153.5q0 188 263 237l264 52v69q0 91 -58 144t-159 53 q-161 0 -217 -148l-50 19q32 86 100.5 132t166.5 46q123 0 197.5 -67t74.5 -181v-338q0 -89 46 -134.5t134 -45.5q117 0 182.5 95.5t65.5 269.5q0 188 -92 346.5t-251 251t-347 92.5t-347 -92t-251 -251t-92 -347q0 -141 54.5 -269t146.5 -220.5t220 -147t269 -54.5 q180 0 336 86l22 -43q-163 -94 -358 -94q-150 0 -287.5 58.5t-236.5 158t-158 236.5t-59 287zM629 334q0 -74 54.5 -119t147.5 -45q129 0 199 91t70 257v57l-250 -47q-113 -22 -167 -69.5t-54 -124.5z" />
<glyph unicode="A" horiz-adv-x="1288" d="M55 0l545 1389h88l543 -1389h-66l-149 383h-744l-151 -383h-66zM295 442h696l-348 887z" />
<glyph unicode="B" horiz-adv-x="1216" d="M180 0v1389h428q199 0 300.5 -89.5t101.5 -263.5q0 -244 -193 -315q135 -26 206 -116t71 -238q0 -180 -103.5 -273.5t-283.5 -93.5h-527zM244 59h463q159 0 241 78.5t82 231.5q0 152 -81.5 230.5t-241.5 78.5h-463v-619zM244 733h364q172 0 256 74t84 225t-84 224 t-256 73h-364v-596z" />
<glyph unicode="C" horiz-adv-x="1484" d="M119 694q0 318 189 516.5t493 198.5q199 0 353.5 -90.5t240.5 -251.5l-58 -25q-76 145 -215.5 226.5t-320.5 81.5q-277 0 -449 -181.5t-172 -474.5t172 -474t449 -181q181 0 320.5 81.5t215.5 225.5l58 -24q-86 -161 -240.5 -251.5t-353.5 -90.5q-201 0 -356 89 t-240.5 251.5t-85.5 373.5z" />
<glyph unicode="D" horiz-adv-x="1349" d="M178 0v1389h297q365 0 541 -148q211 -169 211 -547t-211 -547q-175 -147 -541 -147h-297zM242 59h233q338 0 502 136q188 153 188 499q0 347 -188 500q-167 135 -502 135h-233v-1270z" />
<glyph unicode="E" horiz-adv-x="976" d="M180 0v1389h713v-60h-649v-606h577v-59h-577v-605h649v-59h-713z" />
<glyph unicode="F" horiz-adv-x="958" d="M180 0v1389h715v-60h-651v-606h577v-59h-577v-664h-64z" />
<glyph unicode="G" horiz-adv-x="1576" d="M119 694q0 318 189 516.5t493 198.5q198 0 351 -88t239 -246l-56 -28q-78 143 -216.5 223t-317.5 80q-277 0 -449 -181.5t-172 -474.5t171.5 -474t449.5 -181q255 0 403.5 158t169.5 430h-573v57h635v-684h-56v389q-66 -193 -214.5 -301t-366.5 -108q-149 0 -276 52 t-215.5 145t-138.5 226t-50 291z" />
<glyph unicode="H" horiz-adv-x="1357" d="M180 0v1389h64v-664h874v664h62v-1389h-62v666h-874v-666h-64z" />
<glyph unicode="I" horiz-adv-x="423" d="M180 0v1389h64v-1389h-64z" />
<glyph unicode="J" horiz-adv-x="800" d="M43 53l29 51q97 -65 217 -65q126 0 200 86t74 231v1033h64v-1037q0 -168 -92 -270t-242 -102q-138 0 -250 73z" />
<glyph unicode="K" horiz-adv-x="1169" d="M180 0v1389h64v-635h157l598 635h80l-620 -662l655 -727h-80l-633 696h-157v-696h-64z" />
<glyph unicode="L" horiz-adv-x="845" d="M180 0v1389h64v-1330h559v-59h-623z" />
<glyph unicode="M" horiz-adv-x="1726" d="M139 0l99 1389h108l518 -1293l516 1293h109l98 -1389h-61l-94 1333h-9l-532 -1333h-55l-533 1333h-8l-94 -1333h-62z" />
<glyph unicode="N" horiz-adv-x="1400" d="M180 0v1389h90l887 -1321v1321h64v-1389h-91l-886 1321v-1321h-64z" />
<glyph unicode="O" horiz-adv-x="1601" d="M119 694q0 318 189 516.5t493 198.5q302 0 491 -198.5t189 -516.5q0 -158 -50 -291t-138.5 -226t-215.5 -145t-276 -52q-201 0 -356 89t-240.5 251.5t-85.5 373.5zM180 694q0 -293 172 -474t449 -181t447.5 181t170.5 474t-170.5 474.5t-447.5 181.5t-449 -181.5 t-172 -474.5z" />
<glyph unicode="P" horiz-adv-x="1169" d="M178 0v1389h406q121 0 201.5 -19.5t140.5 -62.5q147 -110 147 -338q0 -128 -49.5 -224t-142.5 -147q-105 -51 -297 -51h-342v-547h-64zM242 606h340q183 0 266 45q162 87 162 318q0 200 -125 293q-93 67 -303 67h-340v-723z" />
<glyph unicode="Q" horiz-adv-x="1605" d="M119 694q0 318 189 516.5t493 198.5q302 0 491 -198.5t189 -516.5q0 -168 -55 -305.5t-158 -234.5l229 -240l-63 -18l-211 219q-177 -135 -422 -135q-201 0 -356 89t-240.5 251.5t-85.5 373.5zM180 694q0 -293 172 -474t449 -181t447.5 181t170.5 474t-170.5 474.5 t-447.5 181.5t-449 -181.5t-172 -474.5z" />
<glyph unicode="R" horiz-adv-x="1206" d="M180 0v1389h406q121 0 201.5 -19.5t140.5 -62.5q147 -110 147 -338q0 -127 -50 -223.5t-142 -147.5q-67 -34 -158 -43l371 -555h-76l-365 549q-23 -2 -69 -2h-342v-547h-64zM244 606h340q183 0 266 45q162 89 162 318q0 201 -127 293q-90 67 -301 67h-340v-723z" />
<glyph unicode="S" horiz-adv-x="1224" d="M106 326l62 14q35 -146 157 -224.5t310 -78.5q192 0 302 86.5t110 238.5q0 36 -8 68t-20 56t-35.5 46t-43.5 37t-55 30t-60 24t-68 19.5t-70 16t-75 15.5q-76 16 -115 25.5t-104.5 30t-101 44.5t-75 60t-56.5 86.5t-17 113.5q0 169 122.5 272t322.5 103q196 0 317.5 -77 t173.5 -240l-57 -17q-47 142 -152 209.5t-280 67.5t-279 -86.5t-104 -231.5q0 -148 138 -219q77 -39 263 -77q7 -2 23 -5q48 -10 77 -16t75 -17.5t74.5 -22t67 -27.5t62 -35.5t49.5 -44t40.5 -55t24 -68t9.5 -82.5q0 -178 -128 -281.5t-347 -103.5q-210 0 -350.5 91 t-178.5 255z" />
<glyph unicode="T" horiz-adv-x="940" d="M41 1329v60h856v-60h-397v-1329h-62v1329h-397z" />
<glyph unicode="U" horiz-adv-x="1320" d="M164 463v926h63v-922q0 -194 119.5 -311t315.5 -117q195 0 314.5 117t119.5 311v922h61v-926q0 -217 -137 -350t-358 -133q-222 0 -360 133t-138 350z" />
<glyph unicode="V" horiz-adv-x="1288" d="M55 1389h66l522 -1332l522 1332h66l-543 -1389h-88z" />
<glyph unicode="W" horiz-adv-x="1939" d="M66 1389h67l402 -1334h4l389 1334h82l391 -1334h2l401 1334h68l-422 -1389h-94l-387 1315l-387 -1315h-95z" />
<glyph unicode="X" horiz-adv-x="1302" d="M55 0l559 713l-532 676h76l493 -629l494 629h76l-531 -676l557 -713h-78l-518 662l-518 -662h-78z" />
<glyph unicode="Y" horiz-adv-x="1122" d="M41 1389h72l448 -689l447 689h71l-487 -744v-645h-64v645z" />
<glyph unicode="Z" horiz-adv-x="1159" d="M72 0v68l936 1261h-932v60h999v-68l-936 -1262h948v-59h-1015z" />
<glyph unicode="[" horiz-adv-x="565" d="M164 -512v2064h362v-55h-303v-1956h303v-53h-362z" />
<glyph unicode="\" horiz-adv-x="1040" d="M-8 1536h67l990 -1890h-66z" />
<glyph unicode="]" horiz-adv-x="565" d="M39 -459h303v1956h-303v55h362v-2064h-362v53z" />
<glyph unicode="^" horiz-adv-x="1296" d="M98 264l518 1125h64l518 -1125h-61l-488 1061l-489 -1061h-62z" />
<glyph unicode="_" horiz-adv-x="1024" d="M0 -70h1024v-55h-1024v55z" />
<glyph unicode="`" horiz-adv-x="628" d="M180 1389h72l197 -304h-52z" />
<glyph unicode="a" horiz-adv-x="995" d="M121 233q0 249 356 306l240 39q59 10 59 57q0 141 -74 216t-213 75q-254 0 -284 -232l-62 8q41 277 349 277q165 0 255.5 -90.5t90.5 -255.5v-469q0 -60 19.5 -84.5t66.5 -24.5h37v-55h-43q-136 0 -136 150v77h-8q-46 -120 -139 -183.5t-225 -63.5q-135 0 -212 66.5 t-77 186.5zM182 236q0 -97 60.5 -149t173.5 -52q177 0 269.5 129t92.5 373l-293 -48q-303 -49 -303 -253z" />
<glyph unicode="b" horiz-adv-x="1208" d="M168 0v1536h59v-825q53 124 160.5 196t245.5 72q197 0 327 -140.5t130 -357.5q0 -219 -130 -360t-327 -141q-138 0 -245.5 72t-160.5 196v-248h-59zM227 481q0 -194 113 -319t287 -125q175 0 288 124.5t113 319.5q0 192 -113 316.5t-288 124.5q-173 0 -286.5 -124.5 t-113.5 -316.5z" />
<glyph unicode="c" horiz-adv-x="1105" d="M119 481q0 216 130.5 357t330.5 141q149 0 261 -80.5t158 -216.5l-57 -12q-43 118 -138.5 186t-223.5 68q-174 0 -287 -125.5t-113 -317.5q0 -195 112.5 -320.5t287.5 -125.5q127 0 223 68.5t139 185.5l57 -10q-46 -138 -157.5 -218.5t-261.5 -80.5q-200 0 -330.5 141 t-130.5 360z" />
<glyph unicode="d" horiz-adv-x="1208" d="M119 481q0 217 129.5 357.5t326.5 140.5q138 0 245.5 -72t160.5 -196v825h61v-1536h-61v248q-53 -124 -160.5 -196t-245.5 -72q-197 0 -326.5 141t-129.5 360zM180 481q0 -195 113.5 -319.5t288.5 -124.5q174 0 286.5 125t112.5 319q0 192 -113 316.5t-286 124.5 q-175 0 -288.5 -124.5t-113.5 -316.5z" />
<glyph unicode="e" horiz-adv-x="1148" d="M119 481q0 218 130.5 358t330.5 140q199 0 328.5 -139.5t129.5 -358.5v-14h-858q3 -190 115.5 -311t284.5 -121q118 0 211 60.5t143 166.5l57 -16q-56 -124 -164 -195t-247 -71q-201 0 -331 141t-130 360zM182 518h795q-9 181 -120 293.5t-277 112.5q-167 0 -277 -113 t-121 -293z" />
<glyph unicode="f" horiz-adv-x="653" d="M61 903v55h203v256q0 160 72.5 241t210.5 81h43v-55h-43q-221 0 -221 -267v-256h264v-55h-264v-903h-62v903h-203z" />
<glyph unicode="g" horiz-adv-x="1204" d="M119 483q0 216 128.5 356t325.5 140q137 0 244 -70.5t160 -191.5v241h61v-968q0 -236 -120 -369t-330 -133q-156 0 -270 79.5t-166 217.5l53 27q45 -124 145.5 -196.5t237.5 -72.5q183 0 286 118t103 327v262q-53 -122 -160 -194t-244 -72q-197 0 -325.5 140.5 t-128.5 358.5zM180 483q0 -193 112.5 -317.5t287.5 -124.5q174 0 286.5 124.5t112.5 317.5q0 192 -112 316.5t-287 124.5t-287.5 -124.5t-112.5 -316.5z" />
<glyph unicode="h" horiz-adv-x="1026" d="M164 0v1536h61v-739q43 86 122 134t183 48q160 0 250 -93.5t90 -260.5v-625h-61v621q0 146 -75 224.5t-212 78.5q-134 0 -215.5 -92.5t-81.5 -249.5v-582h-61z" />
<glyph unicode="i" horiz-adv-x="389" d="M125 1343q0 29 21 49.5t49 20.5q29 0 50 -20.5t21 -49.5t-21 -50t-50 -21q-28 0 -49 21t-21 50zM164 0v958h61v-958h-61z" />
<glyph unicode="j" horiz-adv-x="380" d="M-133 -442q86 0 139.5 17t87.5 61.5t47 114.5t13 183v1024h61v-1024q0 -243 -75.5 -337.5t-272.5 -94.5v56zM115 1343q0 29 20.5 49.5t48.5 20.5q29 0 50.5 -20.5t21.5 -49.5t-21.5 -50t-50.5 -21q-28 0 -48.5 21t-20.5 50z" />
<glyph unicode="k" horiz-adv-x="962" d="M164 0v1536h61v-1001h94l453 423h82l-481 -450l520 -508h-82l-494 481h-92v-481h-61z" />
<glyph unicode="l" horiz-adv-x="389" d="M164 0v1536h61v-1536h-61z" />
<glyph unicode="m" horiz-adv-x="1499" d="M166 0v958h61v-131q36 71 104 111.5t158 40.5q102 0 176 -48.5t103 -135.5q34 87 107.5 135.5t173.5 48.5q135 0 214.5 -82.5t79.5 -220.5v-676h-61v668q0 120 -64.5 188t-177.5 68q-117 0 -185.5 -76t-68.5 -209v-639h-61v668q0 118 -65.5 187t-178.5 69 q-107 0 -175.5 -65t-78.5 -179v-680h-61z" />
<glyph unicode="n" horiz-adv-x="1028" d="M166 0v958h61v-159q43 86 121.5 133t181.5 47q161 0 250.5 -93t89.5 -259v-627h-59v621q0 145 -75.5 224t-211.5 79q-134 0 -215.5 -92.5t-81.5 -249.5v-582h-61z" />
<glyph unicode="o" horiz-adv-x="1163" d="M119 481q0 217 131 357.5t332 140.5t330.5 -140.5t129.5 -357.5q0 -220 -129.5 -360.5t-330.5 -140.5t-332 141t-131 360zM180 481q0 -195 113.5 -319.5t288.5 -124.5t288 124.5t113 319.5q0 192 -113 317.5t-288 125.5t-288.5 -125.5t-113.5 -317.5z" />
<glyph unicode="p" horiz-adv-x="1208" d="M164 -498v1456h61v-247q53 125 160 196.5t246 71.5q197 0 326.5 -140.5t129.5 -359.5q0 -217 -129.5 -358t-326.5 -141q-139 0 -246 72t-160 196v-746h-61zM225 479q0 -193 112.5 -317.5t287.5 -124.5t288 124.5t113 317.5q0 195 -113 319t-288 124t-287.5 -124 t-112.5 -319z" />
<glyph unicode="q" horiz-adv-x="1208" d="M121 479q0 219 129.5 359.5t327.5 140.5q140 0 246.5 -72t158.5 -196v247h61v-1456h-61v744q-52 -122 -159 -194t-246 -72q-197 0 -327 141t-130 358zM182 479q0 -193 113.5 -317.5t288.5 -124.5t287 124t112 318q0 195 -112 319t-287 124t-288.5 -124.5t-113.5 -318.5z " />
<glyph unicode="r" horiz-adv-x="694" d="M164 0v958h61v-229q46 123 150 186.5t258 63.5v-59q-202 0 -305 -114.5t-103 -340.5v-465h-61z" />
<glyph unicode="s" horiz-adv-x="917" d="M113 260l57 14q19 -106 100.5 -172.5t200.5 -66.5q121 0 192.5 59t71.5 158q0 45 -16 79t-38.5 55t-63.5 37.5t-73.5 24.5t-86.5 19q-55 11 -93.5 21.5t-84 30.5t-73.5 45.5t-47.5 65.5t-19.5 91q0 117 87.5 187.5t226.5 70.5q133 0 221.5 -66.5t107.5 -181.5l-57 -10 q-15 95 -88.5 150t-185.5 55q-114 0 -183 -54t-69 -147q0 -49 21 -84.5t63.5 -58t84 -35t105.5 -25.5q42 -9 68.5 -15t64.5 -18t61.5 -25t51 -33t42.5 -44.5t25.5 -58t10.5 -74.5q0 -124 -90 -199t-236 -75q-142 0 -239 78t-119 202z" />
<glyph unicode="t" horiz-adv-x="669" d="M61 903v55h138q67 0 67 72v256h60v-328h262v-55h-262v-659q0 -89 49.5 -138t130.5 -49h82v-57h-90q-105 0 -169.5 65.5t-64.5 174.5v663h-203z" />
<glyph unicode="u" horiz-adv-x="1024" d="M152 332v626h61v-620q0 -145 75 -223t212 -78q134 0 215.5 92t81.5 248v581h61v-958h-61v162q-43 -87 -121.5 -134.5t-181.5 -47.5q-161 0 -251.5 93t-90.5 259z" />
<glyph unicode="v" horiz-adv-x="997" d="M70 958h65l365 -880l362 880h66l-398 -958h-63z" />
<glyph unicode="w" horiz-adv-x="1597" d="M72 958h65l328 -903l4 2l289 901h82l288 -901l5 -2l325 903h66l-348 -958h-89l-286 903h-4l-287 -903h-88z" />
<glyph unicode="x" horiz-adv-x="1021" d="M78 0l395 481l-395 477h78l356 -434l352 434h78l-393 -477l393 -481h-78l-352 434l-356 -434h-78z" />
<glyph unicode="y" horiz-adv-x="997" d="M70 958h65l365 -882l362 882h66l-604 -1456h-66l209 502z" />
<glyph unicode="z" horiz-adv-x="933" d="M76 0l672 903h-625v55h735l-672 -903h662v-55h-772z" />
<glyph unicode="{" horiz-adv-x="540" d="M78 485v68q37 7 63 29t40 49.5t22 72t10 83t2 96.5v430q0 103 61 171t154 68h72v-55h-68q-70 0 -114 -51t-44 -135v-428q0 -66 -4.5 -115t-17.5 -102.5t-41.5 -90.5t-71.5 -55q44 -18 72.5 -55t41.5 -91t17 -102.5t4 -115.5v-428q0 -83 44 -134t114 -51h68v-55h-72 q-94 0 -154.5 67.5t-60.5 170.5v432q0 58 -2 96.5t-10 82.5t-22 71.5t-40 48.5t-63 28z" />
<glyph unicode="|" horiz-adv-x="579" d="M260 -307v1843h62v-1843h-62z" />
<glyph unicode="}" horiz-adv-x="540" d="M39 -457h67q70 0 114 51t44 134v428q0 67 4 115.5t17 102.5t41.5 91t72.5 55q-43 18 -71.5 55t-41.5 90.5t-17.5 102.5t-4.5 115v428q0 84 -44 135t-114 51h-67v55h72q93 0 154 -68t61 -171v-430q0 -58 2 -96.5t10 -83t22 -72t40 -49.5t63 -29v-68q-37 -7 -63 -28 t-40 -48.5t-22 -71.5t-10 -82.5t-2 -96.5v-432q0 -103 -60.5 -170.5t-154.5 -67.5h-72v55z" />
<glyph unicode="~" horiz-adv-x="1206" d="M109 328q0 143 75.5 233t196.5 90q42 0 78.5 -12t68 -38t50.5 -47t49 -58q28 -35 43.5 -53t41.5 -41t53.5 -32.5t59.5 -9.5q97 0 158 75.5t61 195.5h54q0 -142 -75.5 -233t-195.5 -91q-42 0 -78.5 12.5t-68 40t-49.5 47.5t-47 56q-37 46 -60 70t-61.5 44.5t-81.5 20.5 q-96 0 -156.5 -75.5t-60.5 -194.5h-55z" />
<glyph unicode="&#xa1;" horiz-adv-x="434" d="M147 911q0 29 20.5 49.5t49.5 20.5q28 0 49 -20.5t21 -49.5q0 -28 -21 -48.5t-49 -20.5q-29 0 -49.5 20.5t-20.5 48.5zM186 -428l2 1022h56l4 -1022h-62z" />
<glyph unicode="&#xa2;" horiz-adv-x="1105" d="M119 688q0 210 122.5 350.5t313.5 149.5v201h51v-201q140 -7 244 -87.5t149 -211.5l-57 -12q-43 118 -138.5 185.5t-223.5 67.5q-175 0 -287.5 -124.5t-112.5 -317.5q0 -195 112.5 -319.5t287.5 -124.5q128 0 223.5 68t138.5 186l57 -13q-45 -131 -149 -211.5t-244 -87.5 v-186h-51v186q-191 9 -313.5 149.5t-122.5 352.5z" />
<glyph unicode="&#xa3;" horiz-adv-x="1282" d="M150 0v51l94 2q30 0 46.5 17.5t16.5 48.5v536h-157v54h157v225q0 226 112 350.5t314 124.5q170 0 272.5 -95.5t102.5 -258.5q0 -38 -6 -76l-58 6q7 44 7 66q0 141 -85 221t-233 80q-179 0 -272.5 -107t-93.5 -311v-225h407v-54h-407v-598h768v-57h-985z" />
<glyph unicode="&#xa4;" horiz-adv-x="1345" d="M164 227l209 209q-97 114 -97 260q0 147 97 258l-207 207l39 41l207 -207q111 99 262 99q149 0 260 -99l207 207l39 -41l-207 -205q96 -113 96 -260t-96 -260l209 -209l-41 -39l-207 209q-110 -98 -260 -98q-152 0 -262 98l-207 -209zM332 694q0 -142 100 -240t242 -98 q140 0 241 99t101 241q0 140 -101 240t-241 100q-141 0 -241.5 -100t-100.5 -242z" />
<glyph unicode="&#xa5;" horiz-adv-x="1122" d="M41 1389h72l448 -670l447 670h71l-461 -684h406v-56h-432v-338h432v-55h-432v-256h-64v256h-432v55h432v338h-432v56h406z" />
<glyph unicode="&#xa6;" horiz-adv-x="579" d="M260 -307v737h62v-737h-62zM260 799v737h62v-737h-62z" />
<glyph unicode="&#xa7;" horiz-adv-x="1296" d="M170 582q0 147 88 241q-88 78 -88 213q0 167 121 269t319 102q387 0 486 -313l-54 -17q-46 143 -150.5 210t-281.5 67q-174 0 -278.5 -86t-104.5 -232q0 -63 25.5 -111t57.5 -76t99 -52.5t111.5 -35t132.5 -28.5q49 -10 76.5 -15.5t74 -17.5t74 -22t65.5 -27t61 -34.5 t49 -43t40 -54.5t23.5 -67t9.5 -81q0 -147 -86 -242q86 -76 86 -213q0 -167 -120.5 -269t-319.5 -102q-386 0 -485 314l53 16q46 -142 150.5 -209t281.5 -67q175 0 279 85.5t104 231.5q0 63 -25.5 111t-57.5 76t-99 52.5t-111.5 35t-132.5 28.5q-48 10 -76.5 16t-74 17.5 t-73.5 21.5t-66 27t-61 35t-49 43.5t-40 54.5t-23.5 67t-9.5 81zM227 584q0 -154 142 -228q78 -40 265 -80q8 -1 23 -5h1h1h1h1l1 -1h2q81 -16 124 -25.5t105 -32.5t102 -52q74 83 74 209q0 37 -8.5 68.5t-20 56t-35 46.5t-43 37t-55.5 30t-60 23.5t-68 19.5t-69.5 16.5 t-74.5 15.5q-116 22 -196 46t-136 65q-76 -85 -76 -209z" />
<glyph unicode="&#xa8;" horiz-adv-x="798" d="M180 1343q0 29 21 49.5t49 20.5q29 0 50.5 -20.5t21.5 -49.5t-21.5 -50t-50.5 -21q-28 0 -49 21t-21 50zM479 1343q0 29 21 49.5t49 20.5t48.5 -20.5t20.5 -49.5t-20.5 -50t-48.5 -21t-49 21t-21 50z" />
<glyph unicode="&#xa9;" horiz-adv-x="1734" d="M154 694q0 193 96 358t260.5 261t357.5 96q144 0 276 -57t227.5 -153.5t152.5 -228.5t57 -276q0 -192 -95.5 -356.5t-260 -261t-357.5 -96.5t-357.5 96.5t-260.5 261t-96 356.5zM203 694q0 -135 52.5 -258t142 -212.5t212.5 -142t258 -52.5t258 53t212 142.5t141.5 212 t52.5 257.5q0 181 -89 333.5t-241.5 241.5t-333.5 89q-135 0 -257.5 -52.5t-212 -141.5t-142.5 -212t-53 -258zM440 692q0 177 125.5 302.5t300.5 125.5q103 0 192.5 -47t151.5 -129l-41 -26q-52 70 -131.5 110.5t-171.5 40.5q-157 0 -267 -110t-110 -267q0 -155 110 -265 t267 -110q92 0 171.5 41t131.5 111l41 -29q-62 -80 -151.5 -127t-192.5 -47q-175 0 -300.5 125.5t-125.5 300.5z" />
<glyph unicode="&#xaa;" horiz-adv-x="962" d="M150 1081q0 132 92 226t221 94q83 0 151 -40.5t109 -109.5v138h51v-615h-51v135q-41 -68 -109 -107.5t-151 -39.5q-129 0 -221 93t-92 226zM201 1081q0 -114 76 -193t184 -79t185 79.5t77 192.5q0 110 -77.5 189.5t-184.5 79.5t-183.5 -79.5t-76.5 -189.5z" />
<glyph unicode="&#xab;" horiz-adv-x="903" d="M70 481l311 377h70l-312 -377l312 -377h-70zM444 481l312 377h67l-311 -377l311 -377h-67z" />
<glyph unicode="&#xac;" horiz-adv-x="1361" d="M109 651v58h1144v-455h-57v397h-1087z" />
<glyph unicode="&#xad;" horiz-adv-x="776" d="M31 453v55h717v-55h-717z" />
<glyph unicode="&#xae;" horiz-adv-x="858" d="M41 1020q0 160 113.5 274.5t273.5 114.5q158 0 272.5 -114.5t114.5 -274.5q0 -157 -114.5 -271t-272.5 -114t-272.5 114t-114.5 271zM86 1020q0 -140 100.5 -240t241.5 -100q140 0 241 100.5t101 239.5q0 142 -100.5 243t-241.5 101t-241.5 -101.5t-100.5 -242.5z M291 799v444h176q56 0 92.5 -37.5t36.5 -93.5q0 -39 -21 -69t-55 -44l86 -200h-49l-84 192h-137v-192h-45zM336 1034h129q39 0 62.5 22t23.5 56q0 37 -24 61.5t-62 24.5h-129v-164z" />
<glyph unicode="&#xaf;" horiz-adv-x="784" d="M180 1190v51h422v-51h-422z" />
<glyph unicode="&#xb0;" horiz-adv-x="942" d="M197 1135q0 113 80.5 193.5t193.5 80.5q111 0 191.5 -81t80.5 -193t-80.5 -192.5t-191.5 -80.5q-113 0 -193.5 80.5t-80.5 192.5zM248 1135q0 -93 65 -158.5t158 -65.5q92 0 156.5 65.5t64.5 158.5q0 92 -64.5 157.5t-156.5 65.5q-93 0 -158 -65t-65 -158z" />
<glyph unicode="&#xb1;" horiz-adv-x="1146" d="M109 39v55h929v-55h-929zM109 647v55h438v431h55v-431h436v-55h-436v-430h-55v430h-438z" />
<glyph unicode="&#xb2;" horiz-adv-x="628" d="M61 801v57l345 350q63 66 89.5 117t26.5 105q0 85 -55 133.5t-150 48.5q-106 0 -163.5 -55t-57.5 -158v-43l-35 4v41q0 116 67.5 181t188.5 65q110 0 176 -58.5t66 -158.5q0 -56 -27 -113t-100 -131l-336 -342v-8h488v-35h-523z" />
<glyph unicode="&#xb3;" horiz-adv-x="661" d="M55 1055h37q0 -109 63 -170.5t175 -61.5q97 0 160 58t63 149q0 98 -66.5 154.5t-183.5 56.5h-27v33h27q91 0 146 48.5t55 125.5q0 72 -51 118t-131 46q-88 0 -142.5 -55.5t-54.5 -143.5v-4l-37 6q0 101 65.5 166.5t168.5 65.5q95 0 156 -55.5t61 -141.5 q0 -69 -38.5 -118.5t-105.5 -71.5q92 -20 143.5 -80t51.5 -150q0 -105 -73 -173.5t-185 -68.5q-129 0 -203 71.5t-74 195.5z" />
<glyph unicode="&#xb4;" horiz-adv-x="628" d="M180 1085l197 304h72l-218 -304h-51z" />
<glyph unicode="&#xb5;" horiz-adv-x="1024" d="M152 -498v1456h61v-620q0 -145 75 -223t212 -78q134 0 215.5 92t81.5 248v581h61v-958h-61v162q-43 -87 -121.5 -134.5t-181.5 -47.5q-193 0 -281 129v-607h-61z" />
<glyph unicode="&#xb6;" horiz-adv-x="1140" d="M115 1047q0 165 96.5 253.5t267.5 88.5h137v-1696h-49v1009h-88q-171 0 -267.5 90t-96.5 255zM831 -307v1696h50v-1696h-50z" />
<glyph unicode="&#xb7;" horiz-adv-x="600" d="M240 694q0 29 20.5 50.5t48.5 21.5t49 -21.5t21 -50.5t-21 -49t-49 -20t-48.5 20t-20.5 49z" />
<glyph unicode="&#xb8;" horiz-adv-x="673" d="M180 -401l43 26q34 -51 107 -51q51 0 81.5 28.5t30.5 75.5q0 46 -28 71.5t-78 25.5q-44 0 -84 -21l-43 25l123 244l47 -15l-96 -196q24 8 57 8q69 0 110.5 -39t41.5 -103q0 -67 -45 -109t-117 -42q-100 0 -150 72z" />
<glyph unicode="&#xb9;" horiz-adv-x="380" d="M-6 1415v45l211 174h39v-833h-37v788z" />
<glyph unicode="&#xba;" horiz-adv-x="890" d="M117 1090q0 132 96 225.5t231 93.5q137 0 232.5 -93t95.5 -226q0 -134 -95 -227t-233 -93q-135 0 -231 93.5t-96 226.5zM168 1090q0 -117 79.5 -198t196.5 -81q114 0 195.5 81.5t81.5 197.5q0 113 -81.5 193.5t-195.5 80.5q-116 0 -196 -80.5t-80 -193.5z" />
<glyph unicode="&#xbb;" horiz-adv-x="905" d="M80 104l311 377l-311 377h67l312 -377l-312 -377h-67zM455 104l311 377l-311 377h67l312 -377l-312 -377h-67z" />
<glyph unicode="&#xbc;" horiz-adv-x="1286" d="M-6 1169v45l211 175h39v-834h-37v788zM111 0l782 1389h41l-784 -1389h-39zM655 203v35l430 596h45v-596h107v-35h-107v-203h-36v203h-439zM698 238h396v553z" />
<glyph unicode="&#xbd;" horiz-adv-x="1290" d="M-6 1169v45l211 175h39v-834h-37v788zM111 0l782 1389h41l-784 -1389h-39zM725 0v57l344 351q63 64 90 115.5t27 105.5q0 85 -55 133.5t-150 48.5q-106 0 -163.5 -56t-57.5 -157v-43l-35 4v41q0 116 67.5 181t188.5 65q110 0 176 -58.5t66 -158.5q0 -56 -27 -113 t-100 -131l-336 -344v-6h487v-35h-522z" />
<glyph unicode="&#xbe;" horiz-adv-x="1564" d="M55 809h37q0 -109 63 -170t175 -61q97 0 160 58t63 148q0 98 -66.5 154.5t-183.5 56.5h-27v33h27q91 0 146 48.5t55 125.5q0 72 -51 118t-131 46q-88 0 -142.5 -55.5t-54.5 -143.5v-4l-37 6q0 101 65.5 166.5t168.5 65.5q95 0 156 -55.5t61 -141.5q0 -69 -38.5 -118.5 t-105.5 -71.5q92 -20 143.5 -80t51.5 -150q0 -104 -73 -172.5t-185 -68.5q-129 0 -203 71t-74 195zM391 0l783 1389h40l-784 -1389h-39zM934 203v35l430 596h45v-596h107v-35h-107v-203h-37v203h-438zM977 238h395v553z" />
<glyph unicode="&#xbf;" horiz-adv-x="970" d="M78 -72q0 41 5 77t18 68t23.5 55.5t33 49.5t33.5 39.5t39.5 36t36 28.5t36.5 27q80 59 111.5 110.5t31.5 121.5v53h58v-57q0 -84 -37.5 -145.5t-126.5 -125.5q-36 -26 -56.5 -41.5t-52.5 -48t-49.5 -63.5t-31 -79.5t-13.5 -103.5q0 -149 92 -236t248 -87q158 0 252 93 t94 249q0 53 -8 86l59 8q9 -44 9 -94q0 -180 -111.5 -290t-294.5 -110q-180 0 -289.5 103.5t-109.5 275.5zM406 909q0 29 20 49.5t49 20.5q28 0 49 -20.5t21 -49.5q0 -28 -21 -48.5t-49 -20.5t-48.5 20.5t-20.5 48.5z" />
<glyph unicode="&#xc0;" horiz-adv-x="1288" d="M55 0l545 1389h88l543 -1389h-66l-149 383h-744l-151 -383h-66zM295 442h696l-348 887zM442 1694h68l160 -244h-52z" />
<glyph unicode="&#xc1;" horiz-adv-x="1288" d="M55 0l545 1389h88l543 -1389h-66l-149 383h-744l-151 -383h-66zM295 442h696l-348 887zM618 1450l160 244h68l-176 -244h-52z" />
<glyph unicode="&#xc2;" horiz-adv-x="1288" d="M55 0l545 1389h88l543 -1389h-66l-149 383h-744l-151 -383h-66zM295 442h696l-348 887zM399 1487l199 207h90l197 -207h-49l-193 180l-194 -180h-50z" />
<glyph unicode="&#xc3;" horiz-adv-x="1288" d="M55 0l545 1389h88l543 -1389h-66l-149 383h-744l-151 -383h-66zM295 442h696l-348 887zM309 1468q0 97 51.5 159.5t131.5 62.5q34 0 61 -8.5t49 -27t33.5 -31t30.5 -38.5q38 -49 56 -62q31 -24 77 -24q58 0 93.5 48t35.5 124h49q0 -97 -50.5 -159t-129.5 -62 q-44 0 -79.5 18t-51 35t-39.5 49q-40 51 -59 64q-32 24 -79 24q-58 0 -94.5 -47.5t-36.5 -124.5h-49z" />
<glyph unicode="&#xc4;" horiz-adv-x="1288" d="M55 0l545 1389h88l543 -1389h-66l-149 383h-744l-151 -383h-66zM295 442h696l-348 887zM424 1577q0 29 21 49.5t49 20.5q29 0 50 -20.5t21 -49.5q0 -28 -21 -49t-50 -21q-28 0 -49 21t-21 49zM723 1577q0 29 21 49.5t49 20.5t48.5 -20.5t20.5 -49.5q0 -28 -20.5 -49 t-48.5 -21t-49 21t-21 49z" />
<glyph unicode="&#xc5;" horiz-adv-x="1288" d="M55 0l545 1389h88l543 -1389h-66l-149 383h-744l-151 -383h-66zM295 442h696l-348 887zM426 1645q0 91 63 153t154 62q90 0 152.5 -62.5t62.5 -152.5q0 -88 -63.5 -151.5t-151.5 -63.5q-89 0 -153 63.5t-64 151.5zM475 1645q0 -68 49.5 -117t118.5 -49q67 0 116.5 49.5 t49.5 116.5q0 70 -48.5 118.5t-117.5 48.5q-71 0 -119.5 -48.5t-48.5 -118.5z" />
<glyph unicode="&#xc6;" horiz-adv-x="1660" d="M55 0l545 1389h975v-60h-651v-606h577v-59h-577v-605h651v-59h-713v383h-590l-151 -383h-66zM293 442h569v887h-219z" />
<glyph unicode="&#xc7;" horiz-adv-x="1484" d="M119 694q0 318 189 516.5t493 198.5q199 0 353.5 -90.5t240.5 -251.5l-58 -25q-76 145 -215.5 226.5t-320.5 81.5q-277 0 -449 -181.5t-172 -474.5t172 -474t449 -181q181 0 320.5 81.5t215.5 225.5l58 -24q-84 -158 -233.5 -248t-342.5 -94l-82 -168q24 8 58 8 q69 0 110 -38.5t41 -103.5q0 -67 -45 -109t-117 -42q-99 0 -149 72l43 26q34 -51 106 -51q51 0 82 28.5t31 75.5q0 46 -28 71.5t-78 25.5q-44 0 -84 -21l-43 25l102 201q-291 12 -469 208t-178 506z" />
<glyph unicode="&#xc8;" horiz-adv-x="976" d="M180 0v1389h713v-60h-649v-606h577v-59h-577v-605h649v-59h-713zM348 1694h68l159 -244h-51z" />
<glyph unicode="&#xc9;" horiz-adv-x="976" d="M180 0v1389h713v-60h-649v-606h577v-59h-577v-605h649v-59h-713zM524 1450l160 244h68l-177 -244h-51z" />
<glyph unicode="&#xca;" horiz-adv-x="976" d="M180 0v1389h713v-60h-649v-606h577v-59h-577v-605h649v-59h-713zM307 1487l199 207h90l197 -207h-50l-192 180l-195 -180h-49z" />
<glyph unicode="&#xcb;" horiz-adv-x="976" d="M180 0v1389h713v-60h-649v-606h577v-59h-577v-605h649v-59h-713zM332 1577q0 29 20.5 49.5t48.5 20.5q29 0 50.5 -20.5t21.5 -49.5q0 -28 -21.5 -49t-50.5 -21q-28 0 -48.5 21t-20.5 49zM631 1577q0 29 20.5 49.5t48.5 20.5t49 -20.5t21 -49.5q0 -28 -21 -49t-49 -21 t-48.5 21t-20.5 49z" />
<glyph unicode="&#xcc;" horiz-adv-x="423" d="M10 1694h68l160 -244h-52zM180 0v1389h64v-1389h-64z" />
<glyph unicode="&#xcd;" horiz-adv-x="423" d="M180 0v1389h64v-1389h-64zM186 1450l160 244h68l-176 -244h-52z" />
<glyph unicode="&#xce;" horiz-adv-x="423" d="M-33 1487l199 207h90l197 -207h-50l-192 180l-195 -180h-49zM180 0v1389h64v-1389h-64z" />
<glyph unicode="&#xcf;" horiz-adv-x="423" d="M-8 1577q0 29 20.5 49.5t48.5 20.5q29 0 50.5 -20.5t21.5 -49.5q0 -28 -21.5 -49t-50.5 -21q-28 0 -48.5 21t-20.5 49zM180 0v1389h64v-1389h-64zM291 1577q0 29 20.5 49.5t48.5 20.5t49 -20.5t21 -49.5q0 -28 -21 -49t-49 -21t-48.5 21t-20.5 49z" />
<glyph unicode="&#xd0;" horiz-adv-x="1349" d="M12 668v53h166v668h297q365 0 541 -148q211 -169 211 -547t-211 -547q-175 -147 -541 -147h-297v668h-166zM242 59h233q338 0 502 136q188 153 188 499q0 347 -188 500q-167 135 -502 135h-233v-608h333v-53h-333v-609z" />
<glyph unicode="&#xd1;" horiz-adv-x="1400" d="M180 0v1389h90l887 -1321v1321h64v-1389h-91l-886 1321v-1321h-64zM377 1468q0 97 51.5 159.5t130.5 62.5q34 0 61 -8.5t49 -27t33.5 -31t30.5 -38.5q38 -49 56 -62q31 -24 77 -24q58 0 93.5 48t35.5 124h49q0 -97 -50.5 -159t-129.5 -62q-44 0 -79.5 18t-51 35t-39.5 49 q-2 2 -11 13.5t-10.5 14t-10 12t-11.5 12t-11.5 10t-13.5 9.5t-13.5 6.5t-16.5 6t-18 3t-21 1.5q-58 0 -94.5 -47.5t-36.5 -124.5h-49z" />
<glyph unicode="&#xd2;" horiz-adv-x="1601" d="M119 694q0 318 189 516.5t493 198.5q302 0 491 -198.5t189 -516.5q0 -158 -50 -291t-138.5 -226t-215.5 -145t-276 -52q-201 0 -356 89t-240.5 251.5t-85.5 373.5zM180 694q0 -293 172 -474t449 -181t447.5 181t170.5 474t-170.5 474.5t-447.5 181.5t-449 -181.5 t-172 -474.5zM598 1694h68l159 -244h-51z" />
<glyph unicode="&#xd3;" horiz-adv-x="1601" d="M119 694q0 318 189 516.5t493 198.5q302 0 491 -198.5t189 -516.5q0 -158 -50 -291t-138.5 -226t-215.5 -145t-276 -52q-201 0 -356 89t-240.5 251.5t-85.5 373.5zM180 694q0 -293 172 -474t449 -181t447.5 181t170.5 474t-170.5 474.5t-447.5 181.5t-449 -181.5 t-172 -474.5zM774 1450l160 244h67l-176 -244h-51z" />
<glyph unicode="&#xd4;" horiz-adv-x="1601" d="M119 694q0 318 189 516.5t493 198.5q302 0 491 -198.5t189 -516.5q0 -158 -50 -291t-138.5 -226t-215.5 -145t-276 -52q-201 0 -356 89t-240.5 251.5t-85.5 373.5zM180 694q0 -293 172 -474t449 -181t447.5 181t170.5 474t-170.5 474.5t-447.5 181.5t-449 -181.5 t-172 -474.5zM557 1487l199 207h90l196 -207h-49l-192 180l-195 -180h-49z" />
<glyph unicode="&#xd5;" horiz-adv-x="1601" d="M119 694q0 318 189 516.5t493 198.5q302 0 491 -198.5t189 -516.5q0 -158 -50 -291t-138.5 -226t-215.5 -145t-276 -52q-201 0 -356 89t-240.5 251.5t-85.5 373.5zM180 694q0 -293 172 -474t449 -181t447.5 181t170.5 474t-170.5 474.5t-447.5 181.5t-449 -181.5 t-172 -474.5zM465 1468q0 97 51.5 159.5t130.5 62.5q34 0 61 -8.5t49 -27t33.5 -31t30.5 -38.5q38 -49 56 -62q31 -24 77 -24q58 0 93.5 48t35.5 124h50q0 -97 -51 -159t-130 -62q-44 0 -79.5 18t-51 35t-39.5 49q-2 2 -11 13.5t-10.5 14t-10 12t-11.5 12t-11.5 10 t-13.5 9.5t-13.5 6.5t-16.5 6t-18 3t-21 1.5q-58 0 -94.5 -47.5t-36.5 -124.5h-49z" />
<glyph unicode="&#xd6;" horiz-adv-x="1601" d="M119 694q0 318 189 516.5t493 198.5q302 0 491 -198.5t189 -516.5q0 -158 -50 -291t-138.5 -226t-215.5 -145t-276 -52q-201 0 -356 89t-240.5 251.5t-85.5 373.5zM180 694q0 -293 172 -474t449 -181t447.5 181t170.5 474t-170.5 474.5t-447.5 181.5t-449 -181.5 t-172 -474.5zM582 1577q0 29 20.5 49.5t48.5 20.5q29 0 50.5 -20.5t21.5 -49.5q0 -28 -21.5 -49t-50.5 -21q-28 0 -48.5 21t-20.5 49zM881 1577q0 29 20.5 49.5t48.5 20.5t49 -20.5t21 -49.5q0 -28 -21 -49t-49 -21t-48.5 21t-20.5 49z" />
<glyph unicode="&#xd7;" horiz-adv-x="913" d="M109 170l311 311l-311 307l38 39l312 -307l307 307l39 -39l-307 -307l307 -311l-39 -39l-307 309l-312 -309z" />
<glyph unicode="&#xd8;" horiz-adv-x="1601" d="M119 694q0 318 189 516.5t493 198.5q223 0 389 -113l141 203l39 -29l-141 -202q120 -95 186 -242.5t66 -331.5q0 -158 -50 -291t-138.5 -226t-215.5 -145t-276 -52q-226 0 -391 112l-140 -198l-39 26l140 201q-120 95 -186 242.5t-66 330.5zM180 694q0 -166 59.5 -301 t166.5 -223l749 1077q-150 103 -354 103q-277 0 -449 -181.5t-172 -474.5zM444 141q151 -102 357 -102q277 0 447.5 181t170.5 474q0 167 -59 302.5t-166 222.5z" />
<glyph unicode="&#xd9;" horiz-adv-x="1320" d="M164 463v926h63v-922q0 -194 119.5 -311t315.5 -117q195 0 314.5 117t119.5 311v922h61v-926q0 -217 -137 -350t-358 -133q-222 0 -360 133t-138 350zM459 1694h67l160 -244h-51z" />
<glyph unicode="&#xda;" horiz-adv-x="1320" d="M164 463v926h63v-922q0 -194 119.5 -311t315.5 -117q195 0 314.5 117t119.5 311v922h61v-926q0 -217 -137 -350t-358 -133q-222 0 -360 133t-138 350zM635 1450l160 244h67l-176 -244h-51z" />
<glyph unicode="&#xdb;" horiz-adv-x="1320" d="M164 463v926h63v-922q0 -194 119.5 -311t315.5 -117q195 0 314.5 117t119.5 311v922h61v-926q0 -217 -137 -350t-358 -133q-222 0 -360 133t-138 350zM416 1487l198 207h91l196 -207h-49l-193 180l-194 -180h-49z" />
<glyph unicode="&#xdc;" horiz-adv-x="1320" d="M164 463v926h63v-922q0 -194 119.5 -311t315.5 -117q195 0 314.5 117t119.5 311v922h61v-926q0 -217 -137 -350t-358 -133q-222 0 -360 133t-138 350zM440 1577q0 29 21 49.5t49 20.5q29 0 50.5 -20.5t21.5 -49.5q0 -28 -21.5 -49t-50.5 -21q-28 0 -49 21t-21 49z M739 1577q0 29 21 49.5t49 20.5t49 -20.5t21 -49.5q0 -28 -21 -49t-49 -21t-49 21t-21 49z" />
<glyph unicode="&#xdd;" horiz-adv-x="1122" d="M41 1389h72l448 -689l447 689h71l-487 -744v-645h-64v645zM535 1450l159 244h68l-176 -244h-51z" />
<glyph unicode="&#xde;" horiz-adv-x="1169" d="M178 0v1389h64v-187h342q122 0 202 -18.5t140 -61.5q147 -110 147 -338q0 -129 -49 -224.5t-143 -147.5q-103 -50 -297 -50h-342v-362h-64zM242 420h340q177 0 266 45q162 87 162 317q0 202 -125 295q-98 68 -303 68h-340v-725z" />
<glyph unicode="&#xdf;" horiz-adv-x="1198" d="M164 0v1030q0 275 111.5 400.5t347.5 125.5q182 0 279 -80t97 -231q0 -51 -17 -96t-38 -74.5t-62.5 -62.5t-66.5 -49t-74 -45q-50 -30 -73.5 -46t-55 -43t-44.5 -54.5t-13 -59.5q0 -21 6.5 -39t14.5 -31t26.5 -25t31.5 -18.5t41.5 -16t44 -13.5t50.5 -13q42 -10 67.5 -17 t64.5 -20.5t63.5 -27.5t52.5 -36t44 -48t27 -62.5t11 -79.5q0 -134 -93 -211t-249 -77q-153 0 -255 74.5t-122 203.5l57 12q17 -110 103 -173.5t215 -63.5q132 0 207 62t75 171q0 35 -9 64.5t-21.5 50t-37 38.5t-44 29t-55 23t-57 17.5t-62.5 15.5q-35 9 -55.5 14.5 t-51.5 16.5t-49.5 21t-40 26t-33.5 34t-20 43t-8 54q0 36 14 69t30.5 55t51 48.5t55.5 39.5t64 38q35 22 50.5 31.5t45.5 30.5t44 35t35 37t30 43.5t16.5 48.5t7.5 58q0 125 -79.5 189.5t-235.5 64.5q-213 0 -305.5 -113t-92.5 -362v-1026h-61z" />
<glyph unicode="&#xe0;" horiz-adv-x="995" d="M121 233q0 249 356 306l240 39q59 10 59 57q0 141 -74 216t-213 75q-254 0 -284 -232l-62 8q41 277 349 277q165 0 255.5 -90.5t90.5 -255.5v-469q0 -60 19.5 -84.5t66.5 -24.5h37v-55h-43q-136 0 -136 150v77h-8q-46 -120 -139 -183.5t-225 -63.5q-135 0 -212 66.5 t-77 186.5zM182 236q0 -97 60.5 -149t173.5 -52q177 0 269.5 129t92.5 373l-293 -48q-303 -49 -303 -253zM262 1389h72l196 -304h-51z" />
<glyph unicode="&#xe1;" horiz-adv-x="995" d="M121 233q0 249 356 306l240 39q59 10 59 57q0 141 -74 216t-213 75q-254 0 -284 -232l-62 8q41 277 349 277q165 0 255.5 -90.5t90.5 -255.5v-469q0 -60 19.5 -84.5t66.5 -24.5h37v-55h-43q-136 0 -136 150v77h-8q-46 -120 -139 -183.5t-225 -63.5q-135 0 -212 66.5 t-77 186.5zM182 236q0 -97 60.5 -149t173.5 -52q177 0 269.5 129t92.5 373l-293 -48q-303 -49 -303 -253zM449 1085l196 304h72l-217 -304h-51z" />
<glyph unicode="&#xe2;" horiz-adv-x="995" d="M121 233q0 249 356 306l240 39q59 10 59 57q0 141 -74 216t-213 75q-254 0 -284 -232l-62 8q41 277 349 277q165 0 255.5 -90.5t90.5 -255.5v-469q0 -60 19.5 -84.5t66.5 -24.5h37v-55h-43q-136 0 -136 150v77h-8q-46 -120 -139 -183.5t-225 -63.5q-135 0 -212 66.5 t-77 186.5zM182 236q0 -97 60.5 -149t173.5 -52q177 0 269.5 129t92.5 373l-293 -48q-303 -49 -303 -253zM256 1085l197 304h73l197 -304h-49l-182 258l-187 -258h-49z" />
<glyph unicode="&#xe3;" horiz-adv-x="995" d="M121 233q0 249 356 306l240 39q59 10 59 57q0 141 -74 216t-213 75q-254 0 -284 -232l-62 8q41 277 349 277q165 0 255.5 -90.5t90.5 -255.5v-469q0 -60 19.5 -84.5t66.5 -24.5h37v-55h-43q-136 0 -136 150v77h-8q-46 -120 -139 -183.5t-225 -63.5q-135 0 -212 66.5 t-77 186.5zM156 1106q0 97 51 159t131 62q34 0 61 -8t49 -26.5t33.5 -31.5t30.5 -38t26.5 -34.5t25 -25t36.5 -21t45 -5.5q58 0 93.5 48t35.5 122h49q0 -96 -50.5 -158t-129.5 -62q-33 0 -60 8.5t-48.5 26.5t-32.5 31t-29 37q-2 2 -11 13.5t-10.5 14t-10 12t-11.5 12 t-11.5 10t-13.5 9.5t-13.5 6.5t-16.5 6t-18 3t-21 1.5q-58 0 -94.5 -47.5t-36.5 -124.5h-49zM182 236q0 -97 60.5 -149t173.5 -52q177 0 269.5 129t92.5 373l-293 -48q-303 -49 -303 -253z" />
<glyph unicode="&#xe4;" horiz-adv-x="995" d="M121 233q0 249 356 306l240 39q59 10 59 57q0 141 -74 216t-213 75q-254 0 -284 -232l-62 8q41 277 349 277q165 0 255.5 -90.5t90.5 -255.5v-469q0 -60 19.5 -84.5t66.5 -24.5h37v-55h-43q-136 0 -136 150v77h-8q-46 -120 -139 -183.5t-225 -63.5q-135 0 -212 66.5 t-77 186.5zM182 236q0 -97 60.5 -149t173.5 -52q177 0 269.5 129t92.5 373l-293 -48q-303 -49 -303 -253zM270 1343q0 29 21 49.5t49 20.5q29 0 50.5 -20.5t21.5 -49.5t-21.5 -50t-50.5 -21q-28 0 -49 21t-21 50zM569 1343q0 29 21 49.5t49 20.5t49 -20.5t21 -49.5t-21 -50 t-49 -21t-49 21t-21 50z" />
<glyph unicode="&#xe5;" horiz-adv-x="995" d="M121 233q0 249 356 306l240 39q59 10 59 57q0 141 -74 216t-213 75q-254 0 -284 -232l-62 8q41 277 349 277q165 0 255.5 -90.5t90.5 -255.5v-469q0 -60 19.5 -84.5t66.5 -24.5h37v-55h-43q-136 0 -136 150v77h-8q-46 -120 -139 -183.5t-225 -63.5q-135 0 -212 66.5 t-77 186.5zM182 236q0 -97 60.5 -149t173.5 -52q177 0 269.5 129t92.5 373l-293 -48q-303 -49 -303 -253zM274 1317q0 90 63 152.5t155 62.5q88 0 150.5 -63t62.5 -152q0 -87 -63 -150t-150 -63q-91 0 -154.5 62.5t-63.5 150.5zM324 1317q0 -67 49.5 -115.5t118.5 -48.5 q66 0 114.5 48.5t48.5 115.5q0 69 -47.5 117.5t-115.5 48.5q-70 0 -119 -48.5t-49 -117.5z" />
<glyph unicode="&#xe6;" horiz-adv-x="1812" d="M121 233q0 249 356 306l240 39q59 12 59 57q0 142 -74 216.5t-213 74.5q-128 0 -199.5 -57t-88.5 -175l-58 8q40 277 349 277q140 0 227.5 -67t109.5 -195q56 121 165 191.5t247 70.5q200 0 329.5 -139.5t129.5 -358.5v-14h-858q4 -190 116.5 -311t284.5 -121 q117 0 209.5 60.5t142.5 166.5l58 -16q-56 -124 -164 -195t-246 -71q-157 0 -273.5 87t-162.5 236q-25 -88 -69 -153t-98.5 -100.5t-111.5 -52.5t-118 -17q-135 0 -212 66.5t-77 186.5zM182 238q0 -97 62 -150t174 -53q57 0 111.5 18.5t106 58t89.5 111t53 166.5l10 -12 q-8 47 -8 104q0 24 4 64l-6 -8l-289 -45q-307 -46 -307 -254zM844 518h794q-9 181 -120 293.5t-277 112.5q-167 0 -276.5 -113t-120.5 -293z" />
<glyph unicode="&#xe7;" horiz-adv-x="1105" d="M119 481q0 216 130.5 357t330.5 141q149 0 261 -80.5t158 -216.5l-57 -12q-43 118 -138.5 186t-223.5 68q-174 0 -287 -125.5t-113 -317.5q0 -195 112.5 -320.5t287.5 -125.5q127 0 223 68.5t139 185.5l57 -10q-45 -133 -151 -213t-250 -86l-82 -168q24 8 57 8 q69 0 110.5 -39t41.5 -103q0 -67 -45 -109t-117 -42q-99 0 -149 72l43 26q34 -51 106 -51q51 0 82 28.5t31 75.5q0 46 -28.5 71.5t-78.5 25.5q-44 0 -84 -21l-43 25l103 203q-187 12 -306.5 150.5t-119.5 348.5z" />
<glyph unicode="&#xe8;" horiz-adv-x="1148" d="M119 481q0 218 130.5 358t330.5 140q199 0 328.5 -139.5t129.5 -358.5v-14h-858q3 -190 115.5 -311t284.5 -121q118 0 211 60.5t143 166.5l57 -16q-56 -124 -164 -195t-247 -71q-201 0 -331 141t-130 360zM182 518h795q-9 181 -120 293.5t-277 112.5q-167 0 -277 -113 t-121 -293zM352 1389h72l197 -304h-52z" />
<glyph unicode="&#xe9;" horiz-adv-x="1148" d="M119 481q0 218 130.5 358t330.5 140q199 0 328.5 -139.5t129.5 -358.5v-14h-858q3 -190 115.5 -311t284.5 -121q118 0 211 60.5t143 166.5l57 -16q-56 -124 -164 -195t-247 -71q-201 0 -331 141t-130 360zM182 518h795q-9 181 -120 293.5t-277 112.5q-167 0 -277 -113 t-121 -293zM539 1085l196 304h72l-217 -304h-51z" />
<glyph unicode="&#xea;" horiz-adv-x="1148" d="M119 481q0 218 130.5 358t330.5 140q199 0 328.5 -139.5t129.5 -358.5v-14h-858q3 -190 115.5 -311t284.5 -121q118 0 211 60.5t143 166.5l57 -16q-56 -124 -164 -195t-247 -71q-201 0 -331 141t-130 360zM182 518h795q-9 181 -120 293.5t-277 112.5q-167 0 -277 -113 t-121 -293zM344 1085l197 304h73l197 -304h-49l-182 258l-187 -258h-49z" />
<glyph unicode="&#xeb;" horiz-adv-x="1148" d="M119 481q0 218 130.5 358t330.5 140q199 0 328.5 -139.5t129.5 -358.5v-14h-858q3 -190 115.5 -311t284.5 -121q118 0 211 60.5t143 166.5l57 -16q-56 -124 -164 -195t-247 -71q-201 0 -331 141t-130 360zM182 518h795q-9 181 -120 293.5t-277 112.5q-167 0 -277 -113 t-121 -293zM358 1343q0 29 21 49.5t49 20.5q29 0 50.5 -20.5t21.5 -49.5t-21.5 -50t-50.5 -21q-28 0 -49 21t-21 50zM657 1343q0 29 21 49.5t49 20.5t49 -20.5t21 -49.5t-21 -50t-49 -21t-49 21t-21 50z" />
<glyph unicode="&#xec;" horiz-adv-x="389" d="M-33 1389h72l197 -304h-52zM164 0v958h61v-958h-61z" />
<glyph unicode="&#xed;" horiz-adv-x="389" d="M154 1085l196 304h72l-217 -304h-51zM164 0v958h61v-958h-61z" />
<glyph unicode="&#xee;" horiz-adv-x="389" d="M-39 1085l197 304h73l197 -304h-49l-182 258l-187 -258h-49zM164 0v958h61v-958h-61z" />
<glyph unicode="&#xef;" horiz-adv-x="389" d="M-25 1343q0 29 21 49.5t49 20.5q29 0 50.5 -20.5t21.5 -49.5t-21.5 -50t-50.5 -21q-28 0 -49 21t-21 50zM164 0v958h61v-958h-61zM274 1343q0 29 21 49.5t49 20.5t49 -20.5t21 -49.5t-21 -50t-49 -21t-49 21t-21 50z" />
<glyph unicode="&#xf0;" horiz-adv-x="1368" d="M215 481q0 218 131 358t332 140q101 0 188 -41l-248 334l-303 -78l-12 39l289 76l-168 227h74l155 -213l305 80l11 -39l-289 -76l344 -467q115 -157 115 -340q0 -219 -130 -360t-331 -141t-332 141t-131 360zM276 481q0 -195 112.5 -320.5t289.5 -125.5q175 0 287 125.5 t112 320.5q0 189 -111 316t-288 127q-176 0 -289 -125t-113 -318z" />
<glyph unicode="&#xf1;" horiz-adv-x="1028" d="M166 0v958h61v-159q43 86 121.5 133t181.5 47q161 0 250.5 -93t89.5 -259v-627h-59v621q0 145 -75.5 224t-211.5 79q-134 0 -215.5 -92.5t-81.5 -249.5v-582h-61zM174 1106q0 97 51 159t131 62q34 0 61 -8t49 -26.5t33.5 -31.5t30.5 -38q18 -24 26.5 -34t25.5 -25.5 t36.5 -21t45.5 -5.5q58 0 93.5 48t35.5 122h49q0 -96 -50.5 -158t-129.5 -62q-33 0 -60 8.5t-48.5 26.5t-32.5 31t-29 37q-40 51 -59 64q-32 24 -79 24q-58 0 -94.5 -47.5t-36.5 -124.5h-49z" />
<glyph unicode="&#xf2;" horiz-adv-x="1163" d="M119 481q0 217 131 357.5t332 140.5t330.5 -140.5t129.5 -357.5q0 -220 -129.5 -360.5t-330.5 -140.5t-332 141t-131 360zM180 481q0 -195 113.5 -319.5t288.5 -124.5t288 124.5t113 319.5q0 192 -113 317.5t-288 125.5t-288.5 -125.5t-113.5 -317.5zM354 1389h72 l197 -304h-52z" />
<glyph unicode="&#xf3;" horiz-adv-x="1163" d="M119 481q0 217 131 357.5t332 140.5t330.5 -140.5t129.5 -357.5q0 -220 -129.5 -360.5t-330.5 -140.5t-332 141t-131 360zM180 481q0 -195 113.5 -319.5t288.5 -124.5t288 124.5t113 319.5q0 192 -113 317.5t-288 125.5t-288.5 -125.5t-113.5 -317.5zM541 1085l196 304 h72l-217 -304h-51z" />
<glyph unicode="&#xf4;" horiz-adv-x="1163" d="M119 481q0 217 131 357.5t332 140.5t330.5 -140.5t129.5 -357.5q0 -220 -129.5 -360.5t-330.5 -140.5t-332 141t-131 360zM180 481q0 -195 113.5 -319.5t288.5 -124.5t288 124.5t113 319.5q0 192 -113 317.5t-288 125.5t-288.5 -125.5t-113.5 -317.5zM346 1085l197 304 h73l197 -304h-49l-182 258l-187 -258h-49z" />
<glyph unicode="&#xf5;" horiz-adv-x="1163" d="M119 481q0 217 131 357.5t332 140.5t330.5 -140.5t129.5 -357.5q0 -220 -129.5 -360.5t-330.5 -140.5t-332 141t-131 360zM180 481q0 -195 113.5 -319.5t288.5 -124.5t288 124.5t113 319.5q0 192 -113 317.5t-288 125.5t-288.5 -125.5t-113.5 -317.5zM246 1106 q0 97 51 159t131 62q34 0 61 -8t49 -26.5t33.5 -31.5t30.5 -38t26.5 -34.5t25 -25t36.5 -21t45 -5.5q58 0 93.5 48t35.5 122h49q0 -96 -50.5 -158t-129.5 -62q-33 0 -60 8.5t-48.5 26.5t-32.5 31t-29 37q-2 2 -11 13.5t-10.5 14t-10 12t-11.5 12t-11.5 10t-13.5 9.5 t-13.5 6.5t-16.5 6t-18 3t-21 1.5q-58 0 -94.5 -47.5t-36.5 -124.5h-49z" />
<glyph unicode="&#xf6;" horiz-adv-x="1163" d="M119 481q0 217 131 357.5t332 140.5t330.5 -140.5t129.5 -357.5q0 -220 -129.5 -360.5t-330.5 -140.5t-332 141t-131 360zM180 481q0 -195 113.5 -319.5t288.5 -124.5t288 124.5t113 319.5q0 192 -113 317.5t-288 125.5t-288.5 -125.5t-113.5 -317.5zM362 1343 q0 29 21 49.5t49 20.5q29 0 50.5 -20.5t21.5 -49.5t-21.5 -50t-50.5 -21q-28 0 -49 21t-21 50zM662 1343q0 29 20.5 49.5t48.5 20.5t49 -20.5t21 -49.5t-21 -50t-49 -21t-48.5 21t-20.5 50z" />
<glyph unicode="&#xf7;" horiz-adv-x="1241" d="M109 453v55h1024v-55h-1024zM551 102q0 28 21 49t49 21q27 0 47 -21t20 -49q0 -29 -19.5 -48t-47.5 -19t-49 19t-21 48zM551 858q0 28 21 48t49 20t47.5 -20t19.5 -48q0 -29 -19.5 -48t-47.5 -19t-49 19t-21 48z" />
<glyph unicode="&#xf8;" horiz-adv-x="1163" d="M119 481q0 217 131 357.5t332 140.5q146 0 262 -80l125 178l39 -28l-125 -181q76 -67 117.5 -167t41.5 -220q0 -220 -129.5 -360.5t-330.5 -140.5q-152 0 -265 81l-124 -178l-39 27l127 180q-77 69 -119.5 169.5t-42.5 221.5zM180 481q0 -212 133 -342l498 713 q-101 72 -229 72q-175 0 -288.5 -125.5t-113.5 -317.5zM350 111q104 -74 232 -74q175 0 288 124.5t113 319.5q0 211 -135 340z" />
<glyph unicode="&#xf9;" horiz-adv-x="1024" d="M152 332v626h61v-620q0 -145 75 -223t212 -78q134 0 215.5 92t81.5 248v581h61v-958h-61v162q-43 -87 -121.5 -134.5t-181.5 -47.5q-161 0 -251.5 93t-90.5 259zM279 1389h71l197 -304h-51z" />
<glyph unicode="&#xfa;" horiz-adv-x="1024" d="M152 332v626h61v-620q0 -145 75 -223t212 -78q134 0 215.5 92t81.5 248v581h61v-958h-61v162q-43 -87 -121.5 -134.5t-181.5 -47.5q-161 0 -251.5 93t-90.5 259zM465 1085l197 304h71l-217 -304h-51z" />
<glyph unicode="&#xfb;" horiz-adv-x="1024" d="M152 332v626h61v-620q0 -145 75 -223t212 -78q134 0 215.5 92t81.5 248v581h61v-958h-61v162q-43 -87 -121.5 -134.5t-181.5 -47.5q-161 0 -251.5 93t-90.5 259zM270 1085l197 304h74l196 -304h-49l-182 258l-187 -258h-49z" />
<glyph unicode="&#xfc;" horiz-adv-x="1024" d="M152 332v626h61v-620q0 -145 75 -223t212 -78q134 0 215.5 92t81.5 248v581h61v-958h-61v162q-43 -87 -121.5 -134.5t-181.5 -47.5q-161 0 -251.5 93t-90.5 259zM287 1343q0 29 20.5 49.5t48.5 20.5q29 0 50.5 -20.5t21.5 -49.5t-21.5 -50t-50.5 -21q-28 0 -48.5 21 t-20.5 50zM586 1343q0 29 20.5 49.5t48.5 20.5t49 -20.5t21 -49.5t-21 -50t-49 -21t-48.5 21t-20.5 50z" />
<glyph unicode="&#xfd;" horiz-adv-x="997" d="M70 958h65l365 -882l362 882h66l-604 -1456h-66l209 502zM459 1085l196 304h72l-217 -304h-51z" />
<glyph unicode="&#xfe;" horiz-adv-x="1208" d="M164 -498v2034h61v-825q53 125 160 196.5t246 71.5q197 0 326.5 -140.5t129.5 -359.5q0 -217 -129.5 -358t-326.5 -141q-139 0 -246 71.5t-160 196.5v-746h-61zM225 479q0 -193 113 -317.5t287 -124.5q175 0 288 124.5t113 317.5t-113 318t-288 125q-174 0 -287 -125 t-113 -318z" />
<glyph unicode="&#xff;" horiz-adv-x="997" d="M70 958h65l365 -882l362 882h66l-604 -1456h-66l209 502zM281 1343q0 29 20.5 49.5t48.5 20.5q29 0 50.5 -20.5t21.5 -49.5t-21.5 -50t-50.5 -21q-28 0 -48.5 21t-20.5 50zM580 1343q0 29 20.5 49.5t48.5 20.5t49 -20.5t21 -49.5t-21 -50t-49 -21t-48.5 21t-20.5 50z" />
<glyph unicode="&#x152;" horiz-adv-x="1902" d="M119 694q0 378 211 547q176 148 540 148h947v-60h-650v-606h578v-59h-578v-605h650v-59h-947q-365 0 -540 147q-211 169 -211 547zM180 694q0 -345 189 -499q164 -136 501 -136h234v1270h-234q-334 0 -501 -135q-189 -154 -189 -500z" />
<glyph unicode="&#x153;" horiz-adv-x="2015" d="M119 481q0 217 131 357.5t332 140.5q153 0 268.5 -85t163.5 -228q48 144 163 228.5t267 84.5q200 0 329.5 -139.5t129.5 -358.5v-14h-859q4 -190 117 -311t285 -121q118 0 210 60.5t142 166.5l57 -16q-54 -124 -162.5 -195t-246.5 -71q-154 0 -269 85.5t-163 229.5 q-48 -144 -163 -229.5t-269 -85.5q-201 0 -332 141t-131 360zM180 481q0 -195 113.5 -319.5t288.5 -124.5t288 124.5t113 319.5q0 192 -113 317.5t-288 125.5t-288.5 -125.5t-113.5 -317.5zM1047 518h794q-9 181 -119.5 293.5t-275.5 112.5q-167 0 -277.5 -113t-121.5 -293z " />
<glyph unicode="&#x178;" horiz-adv-x="1122" d="M41 1389h72l448 -689l447 689h71l-487 -744v-645h-64v645zM340 1577q0 29 21 49.5t49 20.5q29 0 50 -20.5t21 -49.5q0 -28 -21 -49t-50 -21q-28 0 -49 21t-21 49zM639 1577q0 29 21 49.5t49 20.5t48.5 -20.5t20.5 -49.5q0 -28 -20.5 -49t-48.5 -21t-49 21t-21 49z" />
<glyph unicode="&#x2c6;" horiz-adv-x="827" d="M180 1085l197 304h74l196 -304h-49l-182 258l-187 -258h-49z" />
<glyph unicode="&#x2dc;" horiz-adv-x="1028" d="M180 1106q0 97 51 159t131 62q34 0 61.5 -8.5t49.5 -26.5t33.5 -31t30.5 -38t26.5 -34.5t25 -25t36.5 -21t45 -5.5q58 0 93.5 48t35.5 122h49q0 -96 -50.5 -158t-129.5 -62q-33 0 -60 8.5t-48.5 26.5t-32.5 31t-29 37q-40 51 -59 64q-32 24 -79 24q-58 0 -94.5 -47.5 t-36.5 -124.5h-49z" />
<glyph unicode="&#x2000;" horiz-adv-x="930" />
<glyph unicode="&#x2001;" horiz-adv-x="1860" />
<glyph unicode="&#x2002;" horiz-adv-x="930" />
<glyph unicode="&#x2003;" horiz-adv-x="1860" />
<glyph unicode="&#x2004;" horiz-adv-x="620" />
<glyph unicode="&#x2005;" horiz-adv-x="465" />
<glyph unicode="&#x2006;" horiz-adv-x="310" />
<glyph unicode="&#x2007;" horiz-adv-x="310" />
<glyph unicode="&#x2008;" horiz-adv-x="232" />
<glyph unicode="&#x2009;" horiz-adv-x="372" />
<glyph unicode="&#x200a;" horiz-adv-x="103" />
<glyph unicode="&#x2010;" horiz-adv-x="776" d="M31 453v55h717v-55h-717z" />
<glyph unicode="&#x2011;" horiz-adv-x="776" d="M31 453v55h717v-55h-717z" />
<glyph unicode="&#x2012;" horiz-adv-x="776" d="M31 453v55h717v-55h-717z" />
<glyph unicode="&#x2013;" horiz-adv-x="1024" d="M0 453v55h1024v-55h-1024z" />
<glyph unicode="&#x2014;" horiz-adv-x="2048" d="M0 453v55h2048v-55h-2048z" />
<glyph unicode="&#x2018;" horiz-adv-x="477" d="M145 784l129 605h56l-123 -605h-62z" />
<glyph unicode="&#x2019;" horiz-adv-x="477" d="M147 784l121 605h62l-127 -605h-56z" />
<glyph unicode="&#x201a;" horiz-adv-x="546" d="M182 -358l121 604h62l-129 -604h-54z" />
<glyph unicode="&#x201c;" horiz-adv-x="827" d="M145 784l129 605h56l-123 -605h-62zM498 784l127 605h55l-121 -605h-61z" />
<glyph unicode="&#x201d;" horiz-adv-x="827" d="M147 784l121 605h62l-127 -605h-56zM500 784l121 605h61l-129 -605h-53z" />
<glyph unicode="&#x201e;" horiz-adv-x="897" d="M182 -358l121 604h62l-129 -604h-54zM532 -358l121 604h62l-127 -604h-56z" />
<glyph unicode="&#x2022;" horiz-adv-x="985" d="M172 481q0 126 96.5 222t225.5 96q125 0 222 -96t97 -222q0 -135 -95.5 -227t-223.5 -92q-131 0 -226.5 91.5t-95.5 227.5z" />
<glyph unicode="&#x2026;" horiz-adv-x="1531" d="M221 49q0 28 21 49t49 21q29 0 50 -21t21 -49q0 -29 -21 -49t-50 -20q-28 0 -49 20t-21 49zM702 49q0 28 21 49t49 21t49 -21t21 -49q0 -29 -21 -49t-49 -20t-49 20t-21 49zM1169 49q0 28 21 49t49 21t49 -21t21 -49q0 -29 -21 -49t-49 -20t-49 20t-21 49z" />
<glyph unicode="&#x202f;" horiz-adv-x="372" />
<glyph unicode="&#x2039;" horiz-adv-x="530" d="M70 481l311 377h70l-312 -377l312 -377h-70z" />
<glyph unicode="&#x203a;" horiz-adv-x="530" d="M80 104l311 377l-311 377h70l311 -377l-311 -377h-70z" />
<glyph unicode="&#x205f;" horiz-adv-x="465" />
<glyph unicode="&#x20ac;" horiz-adv-x="1515" d="M139 518v51h154q-8 55 -8 125q0 69 8 121h-154v51h162q47 250 223.5 396.5t433.5 146.5q251 0 426 -145l-47 -41q-155 127 -379 127q-231 0 -390.5 -130t-205.5 -354h605v-51h-613q-8 -52 -8 -121q0 -73 8 -125h613v-51h-602q47 -222 205.5 -350.5t387.5 -128.5 q224 0 379 127l47 -41q-175 -145 -426 -145q-256 0 -431.5 145t-225.5 393h-162z" />
<glyph unicode="&#x2122;" horiz-adv-x="1277" d="M41 1339v50h422v-50h-184v-608h-50v608h-188zM516 731l51 658h60l250 -564l249 564h60l47 -658h-47l-43 567l-254 -567h-27l-246 561l-47 -561h-53z" />
<glyph unicode="&#x25fc;" horiz-adv-x="962" d="M0 0v963h963v-963h-963z" />
<glyph unicode="&#xfb03;" horiz-adv-x="1642" d="M61 903v55h203v256q0 163 80.5 252.5t241.5 89.5q216 0 284 -172q70 172 293 172q141 0 218.5 -72.5t95.5 -203.5l-60 -16q-22 235 -256 235q-258 0 -258 -285v-256h262v-55h-262v-903h-61v903h-516v-903h-62v903h-203zM326 958h516v256q0 34 2 48q-22 237 -260 237 q-258 0 -258 -285v-256zM1417 0v958h62v-958h-62z" />
<glyph unicode="&#xfb04;" horiz-adv-x="1646" d="M61 903v55h203v256q0 163 80.5 252.5t241.5 89.5q216 0 284 -172q70 172 291 172q160 0 240 -89.5t80 -252.5v-1214h-60v1214q0 285 -260 285q-258 0 -258 -285v-256h262v-55h-262v-903h-61v903h-516v-903h-62v903h-203zM326 958h516v256q0 34 2 48q-22 237 -260 237 q-258 0 -258 -285v-256z" />
</font>
</defs>
</svg>
